REM DIRINDEX 1\2,1\3
REM DIRNAME folder01,folder02,folder03
TITLE ""
FILE "Track66.mp3" MP3
  TRACK 01 AUDIO
    TITLE "0:"
    INDEX 01 00:00:00
  TRACK 02 AUDIO
    TITLE "3:cjc140_234"
    INDEX 01 00:00:05
  TRACK 03 AUDIO
    TITLE "2:cjc140_235"
    INDEX 01 00:02:14
  TRACK 04 AUDIO
    TITLE "2:cjc140_236"
    INDEX 01 00:10:23
  TRACK 05 AUDIO
    TITLE "2:cjc140_237"
    INDEX 01 00:17:74
  TRACK 06 AUDIO
    TITLE "0:"
    INDEX 01 00:24:12
